<svg width="1689" height="1350" viewBox="0 0 1689 1350" fill="none" xmlns="http://www.w3.org/2000/svg">
<g clip-path="url(#clip0_283_202)">
<rect width="1689" height="1350" rx="20" fill="#36627E"/>
<path d="M1560.83 1252C1584.23 1143.62 1669.97 829.766 1460.06 748.415C1263.87 672.385 1134.05 1072.9 929.74 890.629C797.629 772.765 627.431 873.09 489.261 699.339C362.327 539.718 368.088 341.737 547.831 312.962C727.573 284.187 798.405 702.2 994.062 660.488C1103.65 637.126 994.54 468.926 1083.26 355.16C1180.59 230.349 1263.06 149.325 1358.47 91.4651" stroke="#D25C24" stroke-width="50"/>
<path d="M1532.49 1253.88C1556.08 1144.98 1665.48 853.659 1454.64 772.076C1257.59 695.829 1135.84 1093.79 930.696 910.815C798.047 792.497 594.981 873.858 456.283 699.397C328.864 539.125 334.788 340.222 515.393 311.191C695.998 282.159 766.874 702.058 963.478 660.019C1073.59 636.473 964.09 467.57 1053.3 353.216C1151.17 227.76 1234.09 146.304 1329.98 88.1104" stroke="#EF7521" stroke-width="50"/>
<path d="M1504.16 1255.76C1527.93 1146.34 1656.38 872.738 1444.6 790.923C1246.68 714.459 1138.87 1119.06 932.895 935.376C799.707 816.603 562.532 874.625 423.305 699.456C295.401 538.532 301.489 338.708 482.957 309.42C664.424 280.131 735.344 701.917 932.895 659.55C1043.54 635.821 933.64 466.213 1023.35 351.271C1121.76 225.171 1205.12 143.283 1301.5 84.7555" stroke="#F79633" stroke-width="50"/>
<path d="M1523.34 1285.98C1548.95 1171.38 1665.99 904.872 1444.93 820.735C1238.34 742.102 1148.84 1147.21 934.537 956.495C795.966 833.174 540.552 893.728 396.043 711.465C263.286 544.025 271.008 334.995 461.101 303.137C651.195 271.278 700.711 689.129 907.722 643.483C1023.66 617.918 918.549 450.395 1013.2 329.575C1117.04 197.026 1208.12 107.662 1309.37 45.7993" stroke="#FEB256" stroke-width="50"/>
</g>
<defs>
<clipPath id="clip0_283_202">
<rect width="1689" height="1350" rx="20" fill="white"/>
</clipPath>
</defs>
</svg>
