<svg width="1689" height="1350" viewBox="0 0 1689 1350" fill="none" xmlns="http://www.w3.org/2000/svg">
<rect width="1689" height="1350" fill="#1E1E1E"/>
<g clip-path="url(#clip0_0_1)">
<rect width="1689" height="1350" rx="20" fill="#36627E"/>
<path d="M1680.3 1387.44C1710.91 1252.85 1821.83 862.879 1562.77 765.208C1320.66 673.926 1153.82 1171.89 903.2 949.138C741.143 805.101 528.659 931.858 359.911 718.693C204.886 522.863 214.939 277.572 438.203 239.292C661.468 201.012 743.142 717.692 986.329 663.156C1122.53 632.611 989.736 425.894 1101.4 283.687C1223.9 127.675 1327.34 26.112 1446.47 -46.9513" stroke="#D25C24" stroke-width="50"/>
<path d="M1645.15 1390.18C1675.99 1254.95 1815.91 892.538 1555.7 794.592C1312.52 703.054 1155.73 1197.74 904.09 974.125C741.372 829.533 488.418 933.286 319.025 719.249C163.409 522.62 173.677 276.186 398.015 237.575C622.353 198.964 704.053 717.981 948.418 663.024C1085.28 632.244 952.005 424.661 1064.29 281.719C1187.47 124.901 1291.47 22.796 1411.21 -50.6877" stroke="#EF7521" stroke-width="50"/>
<path d="M1610 1392.92C1641.07 1257.05 1804.34 916.301 1542.99 818.082C1298.73 726.289 1159.12 1228.98 906.455 1004.51C743.077 859.366 448.177 934.713 278.14 719.806C121.932 522.376 132.416 274.8 357.827 235.858C583.238 196.917 664.966 718.269 910.509 662.892C1048.03 631.877 914.275 423.428 1027.18 279.751C1151.05 122.126 1255.6 19.4797 1375.95 -54.4242" stroke="#F79633" stroke-width="50"/>
<path d="M1633.33 1430.07C1666.76 1287.76 1815.78 955.958 1542.96 855.001C1287.98 760.648 1171.06 1263.7 908.18 1030.64C738.195 879.944 420.646 958.696 244.164 735.081C82.0348 529.652 94.6793 270.649 330.823 228.398C566.967 186.146 622.215 702.939 879.536 643.363C1023.66 609.996 895.797 404.06 1014.92 253.029C1145.6 87.3366 1259.84 -24.681 1386.27 -102.788" stroke="#FEB256" stroke-width="50"/>
</g>
<defs>
<clipPath id="clip0_0_1">
<rect width="1689" height="1350" rx="20" fill="white"/>
</clipPath>
</defs>
</svg>
