<svg width="1025" height="1293" viewBox="0 0 1025 1293" fill="none" xmlns="http://www.w3.org/2000/svg">
<rect width="1025" height="1293" fill="#1E1E1E"/>
<g id="TV">
<rect x="-209" y="-8" width="1689" height="1350" rx="20" fill="white"/>
<g id="Group 11">
<g id="VCR">
<g id="Feet">
<path id="Left Foot" d="M37 1270H163V1270C163 1282.7 152.703 1293 140 1293H60C47.2975 1293 37 1282.7 37 1270V1270Z" fill="black"/>
<path id="Right Foot" d="M862 1270H988V1270C988 1282.7 977.703 1293 965 1293H885C872.297 1293 862 1282.7 862 1270V1270Z" fill="black"/>
</g>
<path id="VCR Depth" d="M10 874H1015L983.457 846.035C979.798 842.791 975.078 841 970.189 841H54.8113C49.922 841 45.202 842.791 41.5435 846.035L10 874Z" fill="black"/>
<rect id="VCR Container" x="6" y="874" width="1013" height="390" rx="21" fill="#C2AD94" stroke="black" stroke-width="12"/>
</g>
<g id="TV_2">
<g id="Feet_2">
<g id="Left">
<mask id="path-6-inside-1_0_1" fill="white">
<path d="M118 819H211L207.483 850.657C206.639 858.253 200.218 864 192.574 864H136.426C128.782 864 122.361 858.253 121.517 850.657L118 819Z"/>
</mask>
<path d="M118 819H211L207.483 850.657C206.639 858.253 200.218 864 192.574 864H136.426C128.782 864 122.361 858.253 121.517 850.657L118 819Z" fill="#313131" stroke="black" stroke-width="24" mask="url(#path-6-inside-1_0_1)"/>
</g>
<g id="Right">
<mask id="path-7-inside-2_0_1" fill="white">
<path d="M815 819H908L904.483 850.656C903.639 858.253 897.218 864 889.574 864H833.426C825.782 864 819.361 858.253 818.517 850.656L815 819Z"/>
</mask>
<path d="M815 819H908L904.483 850.656C903.639 858.253 897.218 864 889.574 864H833.426C825.782 864 819.361 858.253 818.517 850.656L815 819Z" fill="#313131" stroke="black" stroke-width="24" mask="url(#path-7-inside-2_0_1)"/>
</g>
</g>
<g id="Stand">
<mask id="path-8-inside-3_0_1" fill="white">
<path d="M73 773H952L945.721 819.731C944.855 826.184 939.348 831 932.837 831H92.1628C85.6521 831 80.1455 826.184 79.2785 819.731L73 773Z"/>
</mask>
<path d="M73 773H952L945.721 819.731C944.855 826.184 939.348 831 932.837 831H92.1628C85.6521 831 80.1455 826.184 79.2785 819.731L73 773Z" fill="#313131" stroke="black" stroke-width="24" mask="url(#path-8-inside-3_0_1)"/>
</g>
<g id="Body">
<mask id="path-9-inside-4_0_1" fill="white">
<path fill-rule="evenodd" clip-rule="evenodd" d="M27 0C12.0883 0 0 12.0883 0 27V758C0 772.912 12.0883 785 27 785H998C1012.91 785 1025 772.912 1025 758V27C1025 12.0883 1012.91 0 998 0L27 0ZM163 68C117.16 68 80 105.16 80 151V633C80 678.84 117.16 716 163 716H862C907.84 716 945 678.84 945 633V151C945 105.16 907.84 68 862 68H163Z"/>
</mask>
<path fill-rule="evenodd" clip-rule="evenodd" d="M27 0C12.0883 0 0 12.0883 0 27V758C0 772.912 12.0883 785 27 785H998C1012.91 785 1025 772.912 1025 758V27C1025 12.0883 1012.91 0 998 0L27 0ZM163 68C117.16 68 80 105.16 80 151V633C80 678.84 117.16 716 163 716H862C907.84 716 945 678.84 945 633V151C945 105.16 907.84 68 862 68H163Z" fill="#C2AD94" stroke="black" stroke-width="24" mask="url(#path-9-inside-4_0_1)"/>
</g>
<rect id="TV Off" x="43" y="45" width="928" height="687" fill="#494949"/>
<g id="Screen" filter="url(#filter0_d_0_1)">
<mask id="path-11-inside-5_0_1" fill="white">
<path fill-rule="evenodd" clip-rule="evenodd" d="M63 37C49.1929 37 38 48.1929 38 62V723C38 736.807 49.1929 748 63 748H962C975.807 748 987 736.807 987 723V62C987 48.1929 975.807 37 962 37H63ZM163 68C117.16 68 80 105.16 80 151V633C80 678.84 117.16 716 163 716H862C907.84 716 945 678.84 945 633V151C945 105.16 907.84 68 862 68H163Z"/>
</mask>
<path fill-rule="evenodd" clip-rule="evenodd" d="M63 37C49.1929 37 38 48.1929 38 62V723C38 736.807 49.1929 748 63 748H962C975.807 748 987 736.807 987 723V62C987 48.1929 975.807 37 962 37H63ZM163 68C117.16 68 80 105.16 80 151V633C80 678.84 117.16 716 163 716H862C907.84 716 945 678.84 945 633V151C945 105.16 907.84 68 862 68H163Z" fill="#313131"/>
<path fill-rule="evenodd" clip-rule="evenodd" d="M63 37C49.1929 37 38 48.1929 38 62V723C38 736.807 49.1929 748 63 748H962C975.807 748 987 736.807 987 723V62C987 48.1929 975.807 37 962 37H63ZM163 68C117.16 68 80 105.16 80 151V633C80 678.84 117.16 716 163 716H862C907.84 716 945 678.84 945 633V151C945 105.16 907.84 68 862 68H163Z" stroke="black" stroke-width="24" mask="url(#path-11-inside-5_0_1)"/>
</g>
<g id="Reflection">
<path d="M168.832 107.337C179.933 96.2362 194.989 89.9999 210.688 89.9999L830.207 89.9996C874.389 89.9996 910.207 125.817 910.207 170L910.207 625.931C910.207 645.716 902.347 664.69 888.357 678.68C872.638 694.4 850.859 702.313 828.843 699.233C739.902 686.789 503.047 643.866 393.001 529C288.383 419.8 195.719 248.595 157.759 173.762C146.494 151.554 151.224 124.945 168.832 107.337Z" fill="#D9D9D9" fill-opacity="0.05"/>
<path d="M762.823 125.053C767.419 120.458 773.651 117.876 780.15 117.876L808.68 117.876C849.148 117.876 881.954 150.682 881.954 191.149L881.954 210.887C881.954 217.682 879.254 224.2 874.449 229.005C863.15 240.304 844.377 238.617 835.274 225.484L816.697 198.686C812.499 192.629 807.08 187.517 800.789 183.679L767.387 163.298C753.843 155.034 751.604 136.273 762.823 125.053Z" fill="#D9D9D9" fill-opacity="0.15"/>
</g>
</g>
<g id="VCR Buttons">
<g id="Baseball Button" filter="url(#filter1_d_0_1)">
<rect id="Frame" x="50" y="1095" width="103" height="120" rx="16" fill="#313131" stroke="black" stroke-width="10"/>
<path id="Baseball" d="M117.638 1162.55C117.572 1162.47 117.491 1162.4 117.398 1162.35C117.306 1162.31 117.204 1162.28 117.1 1162.27C116.996 1162.26 116.891 1162.27 116.791 1162.31C116.692 1162.34 116.601 1162.39 116.523 1162.46C115.872 1163.06 115.268 1163.7 114.716 1164.39C114.472 1164.7 114.119 1164.91 113.727 1164.97C113.335 1165.04 112.933 1164.95 112.601 1164.73C112.427 1164.61 112.28 1164.46 112.168 1164.28C112.057 1164.1 111.984 1163.9 111.954 1163.69C111.924 1163.48 111.938 1163.26 111.994 1163.06C112.051 1162.85 112.149 1162.66 112.282 1162.5C112.891 1161.74 113.555 1161.02 114.268 1160.36C114.35 1160.28 114.415 1160.19 114.458 1160.09C114.501 1159.98 114.521 1159.87 114.517 1159.76C114.513 1159.65 114.485 1159.54 114.435 1159.44C114.384 1159.34 114.313 1159.26 114.226 1159.19C110.727 1156.47 106.426 1155 101.999 1155C97.5721 1155 93.2708 1156.47 89.7724 1159.19C89.685 1159.26 89.6136 1159.34 89.5632 1159.44C89.5128 1159.54 89.4847 1159.65 89.4807 1159.76C89.4766 1159.87 89.4969 1159.98 89.5399 1160.09C89.583 1160.19 89.6479 1160.28 89.7301 1160.36C90.431 1161.01 91.0844 1161.71 91.6852 1162.46C91.9278 1162.75 92.0547 1163.13 92.0423 1163.51C92.03 1163.89 91.8791 1164.26 91.6179 1164.53C91.4658 1164.69 91.2821 1164.81 91.0788 1164.89C90.8756 1164.97 90.6575 1165.01 90.4393 1165C90.221 1164.99 90.0074 1164.93 89.8129 1164.83C89.6183 1164.73 89.4473 1164.59 89.311 1164.42C88.7493 1163.72 88.1328 1163.07 87.4674 1162.46C87.3895 1162.39 87.2982 1162.34 87.1991 1162.3C87.1 1162.27 86.9952 1162.26 86.891 1162.27C86.7868 1162.28 86.6855 1162.31 86.5932 1162.36C86.501 1162.4 86.4197 1162.47 86.3543 1162.55C83.5353 1166.09 82 1170.48 82 1175C82 1179.52 83.5353 1183.91 86.3543 1187.45C86.4198 1187.53 86.5013 1187.6 86.5938 1187.64C86.6863 1187.69 86.7879 1187.72 86.8923 1187.73C86.9967 1187.74 87.1018 1187.73 87.201 1187.69C87.3002 1187.66 87.3915 1187.61 87.4693 1187.54C88.1203 1186.94 88.7245 1186.3 89.2764 1185.61C89.5201 1185.3 89.8734 1185.09 90.2655 1185.02C90.6576 1184.96 91.0596 1185.05 91.3911 1185.27C91.5657 1185.39 91.7137 1185.54 91.8257 1185.72C91.9376 1185.9 92.0111 1186.1 92.0417 1186.31C92.0722 1186.52 92.059 1186.74 92.0029 1186.94C91.9469 1187.14 91.8492 1187.33 91.716 1187.5C91.107 1188.26 90.4433 1188.98 89.7301 1189.64C89.6479 1189.72 89.583 1189.81 89.5399 1189.91C89.4969 1190.02 89.4766 1190.13 89.4807 1190.24C89.4847 1190.35 89.5128 1190.46 89.5632 1190.56C89.6136 1190.66 89.685 1190.74 89.7724 1190.81C93.2708 1193.53 97.5721 1195 101.999 1195C106.426 1195 110.727 1193.53 114.226 1190.81C114.313 1190.74 114.384 1190.66 114.435 1190.56C114.485 1190.46 114.513 1190.35 114.517 1190.24C114.521 1190.13 114.501 1190.02 114.458 1189.91C114.415 1189.81 114.35 1189.72 114.268 1189.64C113.555 1188.98 112.891 1188.26 112.282 1187.5C112.15 1187.33 112.053 1187.14 111.998 1186.94C111.942 1186.74 111.93 1186.52 111.96 1186.31C111.991 1186.1 112.064 1185.9 112.176 1185.72C112.288 1185.55 112.435 1185.39 112.609 1185.27C112.94 1185.05 113.342 1184.97 113.734 1185.03C114.127 1185.09 114.48 1185.3 114.724 1185.62C115.276 1186.31 115.88 1186.95 116.531 1187.54C116.608 1187.61 116.7 1187.67 116.799 1187.7C116.898 1187.73 117.003 1187.75 117.108 1187.74C117.212 1187.73 117.314 1187.7 117.406 1187.65C117.499 1187.6 117.58 1187.53 117.646 1187.45C120.465 1183.92 122 1179.53 122 1175.01C122 1170.48 120.465 1166.09 117.646 1162.56L117.638 1162.55ZM93.1001 1167.36C93.4843 1167.27 93.8917 1167.32 94.2407 1167.5C94.5898 1167.69 94.8546 1168.01 94.9822 1168.38C95.3485 1169.43 95.6276 1170.51 95.8165 1171.61C95.8634 1171.83 95.8598 1172.06 95.8058 1172.29C95.7518 1172.51 95.6488 1172.72 95.5044 1172.89C95.36 1173.07 95.1778 1173.21 94.971 1173.31C94.7643 1173.41 94.5382 1173.46 94.3093 1173.46C93.9222 1173.46 93.5488 1173.32 93.2637 1173.06C92.9787 1172.79 92.8028 1172.43 92.7714 1172.05C92.6983 1171.19 92.558 1170.33 92.1562 1169.58C92.0464 1169.37 91.9839 1169.15 91.9734 1168.92C91.9628 1168.69 92.0044 1168.46 92.0951 1168.24C92.1858 1168.03 92.3232 1167.84 92.4972 1167.69C92.6712 1167.54 92.8773 1167.43 93.1001 1167.36ZM95.8165 1178.38C95.6266 1179.5 95.3417 1180.6 94.9649 1181.67C94.8918 1181.87 94.7756 1182.06 94.6239 1182.22C94.4723 1182.38 94.2887 1182.5 94.0854 1182.58C93.8821 1182.66 93.6639 1182.7 93.4452 1182.69C93.2266 1182.68 93.0126 1182.62 92.8175 1182.52C92.4813 1182.35 92.2216 1182.05 92.0866 1181.69C91.9515 1181.34 91.9503 1180.94 92.0832 1180.59C92.3971 1179.69 92.6344 1178.76 92.7925 1177.82C92.8284 1177.61 92.9096 1177.4 93.0309 1177.22C93.1521 1177.04 93.3105 1176.89 93.4956 1176.77C93.6807 1176.65 93.8882 1176.58 94.1044 1176.55C94.3206 1176.52 94.5405 1176.54 94.7496 1176.6C95.1135 1176.72 95.4226 1176.96 95.619 1177.29C95.8153 1177.62 95.8856 1178.01 95.8165 1178.38ZM111.181 1182.52C110.985 1182.62 110.771 1182.68 110.553 1182.69C110.334 1182.7 110.116 1182.66 109.913 1182.58C109.709 1182.5 109.526 1182.38 109.374 1182.22C109.222 1182.06 109.106 1181.87 109.033 1181.67C108.656 1180.6 108.371 1179.5 108.182 1178.38C108.113 1178.01 108.183 1177.62 108.38 1177.29C108.576 1176.96 108.885 1176.72 109.249 1176.6C109.458 1176.54 109.677 1176.52 109.894 1176.55C110.11 1176.58 110.317 1176.65 110.502 1176.77C110.688 1176.89 110.846 1177.04 110.967 1177.22C111.088 1177.4 111.17 1177.61 111.206 1177.82C111.364 1178.76 111.601 1179.69 111.915 1180.59C112.048 1180.94 112.047 1181.34 111.911 1181.69C111.776 1182.05 111.517 1182.35 111.181 1182.52ZM111.836 1169.58C111.434 1170.33 111.294 1171.19 111.221 1172.05C111.201 1172.27 111.132 1172.49 111.018 1172.69C110.904 1172.88 110.748 1173.05 110.561 1173.18C110.374 1173.31 110.161 1173.4 109.937 1173.43C109.713 1173.47 109.484 1173.46 109.266 1173.39C108.898 1173.28 108.585 1173.04 108.385 1172.71C108.185 1172.38 108.112 1171.99 108.18 1171.61C108.368 1170.52 108.647 1169.44 109.016 1168.38C109.143 1168.01 109.407 1167.69 109.757 1167.5C110.106 1167.32 110.514 1167.27 110.898 1167.36C111.12 1167.43 111.326 1167.54 111.499 1167.69C111.672 1167.84 111.809 1168.03 111.899 1168.25C111.989 1168.46 112.031 1168.69 112.02 1168.92C112.009 1169.15 111.946 1169.38 111.836 1169.58Z" fill="white"/>
<circle id="Light" cx="101.5" cy="1122.5" r="6.5" fill="#84FF7E"/>
</g>
<g id="Home Button" filter="url(#filter2_d_0_1)">
<rect id="Frame_2" x="50" y="924" width="103" height="120" rx="16" fill="#313131" stroke="black" stroke-width="10"/>
<path id="Home" d="M121 1003.2V1022.4C121 1022.82 120.833 1023.23 120.536 1023.53C120.239 1023.83 119.837 1024 119.417 1024H108.333C107.913 1024 107.511 1023.83 107.214 1023.53C106.917 1023.23 106.75 1022.82 106.75 1022.4V1012C106.75 1011.79 106.667 1011.58 106.518 1011.43C106.37 1011.28 106.168 1011.2 105.958 1011.2H98.0417C97.8317 1011.2 97.6303 1011.28 97.4819 1011.43C97.3334 1011.58 97.25 1011.79 97.25 1012V1022.4C97.25 1022.82 97.0832 1023.23 96.7863 1023.53C96.4893 1023.83 96.0866 1024 95.6667 1024H84.5833C84.1634 1024 83.7607 1023.83 83.4637 1023.53C83.1668 1023.23 83 1022.82 83 1022.4V1003.2C83.0004 1002.35 83.3343 1001.54 83.9282 1000.94L99.7616 984.937C100.355 984.337 101.161 984 102 984C102.839 984 103.645 984.337 104.238 984.937L120.072 1000.94C120.666 1001.54 121 1002.35 121 1003.2Z" fill="white"/>
<circle id="Light_2" cx="101.5" cy="951.5" r="6.5" fill="#84FF7E"/>
</g>
<g id="Weather Button" filter="url(#filter3_d_0_1)">
<rect id="Frame_3" x="184" y="1095" width="103" height="120" rx="16" fill="#313131" stroke="black" stroke-width="10"/>
<path id="Weather" d="M242.657 1164.47C241.276 1164.47 239.9 1164.65 238.567 1165.02C238.042 1164.17 237.403 1163.39 236.668 1162.7L238.588 1159.98C238.709 1159.8 238.796 1159.61 238.842 1159.4C238.887 1159.2 238.892 1158.98 238.855 1158.78C238.818 1158.57 238.741 1158.37 238.627 1158.19C238.513 1158.01 238.365 1157.86 238.191 1157.74C238.017 1157.62 237.821 1157.53 237.614 1157.49C237.407 1157.44 237.193 1157.43 236.984 1157.47C236.775 1157.51 236.575 1157.59 236.396 1157.7C236.217 1157.81 236.063 1157.96 235.941 1158.13L234.021 1160.86C232.442 1160.06 230.698 1159.65 228.93 1159.65C228.811 1159.65 228.696 1159.65 228.579 1159.65L227.995 1156.38C227.965 1156.17 227.891 1155.96 227.779 1155.78C227.668 1155.59 227.52 1155.43 227.345 1155.31C227.169 1155.18 226.97 1155.09 226.759 1155.04C226.548 1154.99 226.33 1154.99 226.117 1155.02C225.904 1155.06 225.7 1155.14 225.518 1155.26C225.337 1155.37 225.181 1155.53 225.059 1155.71C224.938 1155.88 224.854 1156.08 224.812 1156.3C224.77 1156.51 224.771 1156.72 224.816 1156.94L225.397 1160.22C223.606 1160.81 221.991 1161.83 220.699 1163.2L217.95 1161.29C217.776 1161.16 217.58 1161.07 217.371 1161.03C217.163 1160.98 216.947 1160.97 216.737 1161.01C216.526 1161.04 216.324 1161.12 216.144 1161.23C215.963 1161.35 215.807 1161.5 215.685 1161.67C215.562 1161.84 215.476 1162.04 215.43 1162.25C215.384 1162.46 215.381 1162.67 215.419 1162.88C215.458 1163.09 215.538 1163.29 215.654 1163.47C215.771 1163.65 215.922 1163.8 216.099 1163.92L218.836 1165.83C218.036 1167.4 217.621 1169.14 217.625 1170.9C217.625 1171.01 217.625 1171.13 217.625 1171.24L214.336 1171.82C213.938 1171.89 213.581 1172.11 213.335 1172.43C213.088 1172.74 212.971 1173.14 213.006 1173.54C213.041 1173.94 213.226 1174.32 213.524 1174.59C213.821 1174.86 214.211 1175.01 214.615 1175.01C214.709 1175.01 214.803 1175 214.896 1174.99L218.19 1174.41C218.48 1175.29 218.877 1176.12 219.373 1176.9C217.828 1178.33 216.751 1180.19 216.283 1182.23C215.814 1184.28 215.975 1186.42 216.745 1188.37C217.515 1190.32 218.858 1192 220.599 1193.18C222.34 1194.36 224.399 1195 226.507 1195H242.657C246.727 1195 250.629 1193.39 253.506 1190.53C256.384 1187.67 258 1183.78 258 1179.74C258 1175.69 256.384 1171.8 253.506 1168.94C250.629 1166.08 246.727 1164.47 242.657 1164.47ZM228.308 1174.26C226.185 1173.9 224.001 1174.19 222.05 1175.1C220.971 1173.33 220.622 1171.21 221.078 1169.18C221.534 1167.16 222.758 1165.39 224.495 1164.25C226.233 1163.1 228.348 1162.67 230.399 1163.04C232.449 1163.41 234.277 1164.55 235.499 1166.23C232.205 1167.96 229.65 1170.81 228.308 1174.26Z" fill="white"/>
<circle id="Light_3" cx="235.5" cy="1122.5" r="6.5" fill="#84FF7E"/>
</g>
<g id="UHub Button" filter="url(#filter4_d_0_1)">
<rect id="Frame_4" x="184" y="924" width="103" height="120" rx="16" fill="#313131" stroke="black" stroke-width="10"/>
<path id="UHub" d="M235.5 984C231.391 984.005 227.451 985.662 224.545 988.608C221.639 991.554 220.005 995.548 220 999.714C220 1013.16 234.091 1023.32 234.692 1023.74C234.928 1023.91 235.211 1024 235.5 1024C235.789 1024 236.072 1023.91 236.308 1023.74C236.909 1023.32 251 1013.16 251 999.714C250.995 995.548 249.361 991.554 246.455 988.608C243.549 985.662 239.609 984.005 235.5 984ZM235.5 994C236.615 994 237.704 994.335 238.631 994.963C239.558 995.591 240.281 996.483 240.707 997.528C241.134 998.572 241.246 999.721 241.028 1000.83C240.811 1001.94 240.274 1002.96 239.486 1003.76C238.697 1004.55 237.693 1005.1 236.6 1005.32C235.506 1005.54 234.373 1005.43 233.343 1004.99C232.313 1004.56 231.433 1003.83 230.814 1002.89C230.194 1001.95 229.864 1000.84 229.864 999.714C229.864 998.199 230.457 996.745 231.514 995.674C232.572 994.602 234.005 994 235.5 994Z" fill="white"/>
<circle id="Light_4" cx="235.5" cy="951.5" r="6.5" fill="#84FF7E"/>
</g>
<g id="Golf Button" filter="url(#filter5_d_0_1)">
<rect id="Frame_5" x="318" y="924" width="103" height="120" rx="16" fill="#313131" stroke="black" stroke-width="10"/>
<path id="Golf" d="M377.552 1014.51C377.673 1014.83 377.663 1015.18 377.526 1015.49C377.388 1015.81 377.134 1016.05 376.819 1016.17C375.042 1016.88 373.174 1017.33 371.273 1017.5V1022.71C371.273 1023.05 371.139 1023.38 370.9 1023.62C370.661 1023.86 370.338 1024 370 1024C369.662 1024 369.339 1023.86 369.1 1023.62C368.861 1023.38 368.727 1023.05 368.727 1022.71V1017.5C366.826 1017.33 364.958 1016.88 363.181 1016.17C363.023 1016.11 362.877 1016.02 362.753 1015.91C362.628 1015.79 362.528 1015.65 362.458 1015.5C362.388 1015.34 362.349 1015.17 362.344 1015C362.338 1014.83 362.367 1014.66 362.427 1014.5C362.487 1014.34 362.579 1014.19 362.695 1014.07C362.812 1013.94 362.952 1013.85 363.107 1013.78C363.262 1013.71 363.429 1013.67 363.598 1013.67C363.767 1013.67 363.935 1013.7 364.091 1013.76C366.182 1014.57 368.115 1014.97 370 1014.97C371.885 1014.97 373.818 1014.57 375.909 1013.76C376.224 1013.64 376.574 1013.65 376.882 1013.79C377.19 1013.93 377.431 1014.19 377.552 1014.51ZM384 998.194C384 1001 383.179 1003.74 381.641 1006.08C380.102 1008.41 377.916 1010.23 375.358 1011.31C372.799 1012.38 369.984 1012.66 367.269 1012.11C364.553 1011.57 362.058 1010.21 360.101 1008.23C358.143 1006.24 356.809 1003.72 356.269 1000.96C355.729 998.209 356.006 995.355 357.066 992.762C358.125 990.168 359.92 987.952 362.222 986.392C364.524 984.832 367.231 984 370 984C373.712 984.004 377.27 985.501 379.895 988.162C382.519 990.823 383.996 994.43 384 998.194ZM372.545 1004C372.545 1003.62 372.433 1003.24 372.224 1002.92C372.014 1002.61 371.716 1002.36 371.367 1002.21C371.018 1002.07 370.634 1002.03 370.264 1002.1C369.894 1002.18 369.553 1002.36 369.286 1002.63C369.019 1002.9 368.838 1003.25 368.764 1003.62C368.69 1004 368.728 1004.39 368.873 1004.74C369.017 1005.09 369.262 1005.4 369.576 1005.61C369.89 1005.82 370.259 1005.94 370.636 1005.94C371.143 1005.94 371.628 1005.73 371.986 1005.37C372.344 1005.01 372.545 1004.51 372.545 1004ZM377.636 998.839C377.636 998.456 377.524 998.082 377.315 997.763C377.105 997.445 376.807 997.197 376.458 997.051C376.109 996.904 375.725 996.866 375.355 996.94C374.985 997.015 374.644 997.199 374.377 997.47C374.11 997.741 373.929 998.086 373.855 998.461C373.781 998.837 373.819 999.226 373.964 999.579C374.108 999.933 374.353 1000.24 374.667 1000.45C374.981 1000.66 375.35 1000.77 375.727 1000.77C376.234 1000.77 376.719 1000.57 377.077 1000.21C377.435 999.844 377.636 999.352 377.636 998.839Z" fill="white"/>
<circle id="Light_5" cx="369.5" cy="951.5" r="6.5" fill="#84FF7E"/>
</g>
<g id="Messenger Button" filter="url(#filter6_d_0_1)">
<rect id="Frame_6" x="452" y="924" width="103" height="120" rx="16" fill="#313131" stroke="black" stroke-width="10"/>
<path id="Messenger" d="M519.661 988.346C517.307 985.99 514.229 984.495 510.922 984.103C507.615 983.711 504.272 984.445 501.433 986.185C498.594 987.926 496.425 990.572 495.275 993.697C494.125 996.821 494.061 1000.24 495.094 1003.41L484.869 1013.63C484.592 1013.91 484.373 1014.23 484.224 1014.59C484.075 1014.95 483.999 1015.34 484 1015.73V1021.04C484 1021.82 484.312 1022.58 484.868 1023.13C485.423 1023.69 486.177 1024 486.963 1024H492.889C493.282 1024 493.658 1023.84 493.936 1023.57C494.214 1023.29 494.37 1022.91 494.37 1022.52V1019.56H497.333C497.726 1019.56 498.103 1019.4 498.381 1019.12C498.659 1018.84 498.815 1018.47 498.815 1018.08V1015.11H501.778C501.972 1015.11 502.165 1015.07 502.345 1015C502.525 1014.93 502.688 1014.82 502.826 1014.68L504.596 1012.91C506.078 1013.39 507.627 1013.63 509.185 1013.63H509.203C512.132 1013.63 514.994 1012.76 517.427 1011.13C519.861 1009.5 521.757 1007.19 522.876 1004.48C523.995 1001.77 524.287 998.797 523.714 995.925C523.142 993.054 521.731 990.416 519.661 988.346ZM512.888 998.079C512.302 998.079 511.73 997.905 511.242 997.58C510.755 997.254 510.375 996.792 510.151 996.25C509.927 995.709 509.868 995.113 509.983 994.539C510.097 993.964 510.379 993.436 510.793 993.022C511.208 992.608 511.736 992.325 512.31 992.211C512.885 992.097 513.481 992.155 514.022 992.38C514.564 992.604 515.026 992.984 515.352 993.471C515.678 993.958 515.851 994.531 515.851 995.117C515.851 995.902 515.539 996.656 514.984 997.211C514.428 997.767 513.674 998.079 512.888 998.079Z" fill="white"/>
<circle id="Light_6" cx="503.5" cy="951.5" r="6.5" fill="#84FF7E"/>
</g>
<g id="Camera Button" filter="url(#filter7_d_0_1)">
<rect id="Frame_7" x="586" y="924" width="103" height="120" rx="16" fill="#313131" stroke="black" stroke-width="10"/>
<path id="Camera" d="M655.692 989.217H649.562L646.548 984.774C646.386 984.536 646.167 984.341 645.911 984.206C645.654 984.071 645.368 984 645.077 984H630.923C630.632 984 630.346 984.071 630.089 984.206C629.833 984.341 629.614 984.536 629.452 984.774L626.436 989.217H620.308C618.9 989.217 617.55 989.767 616.555 990.746C615.559 991.724 615 993.051 615 994.435V1018.78C615 1020.17 615.559 1021.49 616.555 1022.47C617.55 1023.45 618.9 1024 620.308 1024H655.692C657.1 1024 658.45 1023.45 659.445 1022.47C660.441 1021.49 661 1020.17 661 1018.78V994.435C661 993.051 660.441 991.724 659.445 990.746C658.45 989.767 657.1 989.217 655.692 989.217ZM645.962 1005.74C645.962 1007.29 645.495 1008.8 644.62 1010.09C643.745 1011.37 642.502 1012.38 641.047 1012.97C639.592 1013.56 637.991 1013.72 636.447 1013.41C634.902 1013.11 633.484 1012.37 632.37 1011.27C631.257 1010.18 630.499 1008.78 630.191 1007.27C629.884 1005.75 630.042 1004.17 630.644 1002.74C631.247 1001.31 632.268 1000.09 633.577 999.232C634.886 998.372 636.425 997.913 638 997.913C640.112 997.913 642.137 998.738 643.63 1000.21C645.123 1001.67 645.962 1003.66 645.962 1005.74Z" fill="white"/>
<circle id="Light_7" cx="637.5" cy="951.5" r="6.5" fill="#84FF7E"/>
</g>
<g id="Clock">
<rect id="Rectangle 60" x="318" y="1095" width="371" height="120" rx="16" fill="#313131" stroke="black" stroke-width="10"/>
<g id="12:34 PM" filter="url(#filter8_d_0_1)">
<text fill="#84FF7E" xml:space="preserve" style="white-space: pre" font-family="Digital Numbers" font-size="40" letter-spacing="0em"><tspan x="366.902" y="1168.14">12:34 PM</tspan></text>
</g>
</g>
</g>
<g id="Group 15">
<g id="Power Button On" filter="url(#filter9_d_0_1)">
<g id="Ellipse 10" filter="url(#filter10_d_0_1)">
<circle cx="860" cy="1002" r="98" fill="#313131"/>
<circle cx="860" cy="1002" r="93" stroke="black" stroke-width="10"/>
</g>
<g id="Vector" filter="url(#filter11_d_0_1)">
<path fill-rule="evenodd" clip-rule="evenodd" d="M864.915 961.019C864.915 959.715 864.397 958.464 863.474 957.542C862.552 956.619 861.301 956.101 859.997 956.101C858.693 956.101 857.442 956.619 856.52 957.542C855.597 958.464 855.079 959.715 855.079 961.019V997.085C855.079 998.389 855.597 999.64 856.52 1000.56C857.442 1001.48 858.693 1002 859.997 1002C861.301 1002 862.552 1001.48 863.474 1000.56C864.397 999.64 864.915 998.389 864.915 997.085V961.019ZM839.802 972.114C840.357 971.762 840.835 971.301 841.209 970.76C841.583 970.219 841.845 969.609 841.979 968.965C842.113 968.321 842.116 967.657 841.989 967.011C841.861 966.366 841.606 965.753 841.238 965.208C840.869 964.664 840.395 964.198 839.844 963.84C839.292 963.481 838.675 963.237 838.027 963.122C837.38 963.006 836.716 963.022 836.075 963.168C835.433 963.313 834.828 963.586 834.294 963.97C826.154 969.474 819.995 977.444 816.722 986.709C813.45 995.974 813.237 1006.05 816.114 1015.44C818.992 1024.84 824.809 1033.06 832.708 1038.9C840.608 1044.75 850.175 1047.9 860 1047.9C869.826 1047.9 879.392 1044.75 887.292 1038.9C895.192 1033.06 901.009 1024.84 903.886 1015.44C906.764 1006.05 906.551 995.974 903.279 986.709C900.006 977.444 893.847 969.474 885.707 963.97C885.172 963.602 884.57 963.343 883.935 963.208C883.3 963.074 882.644 963.066 882.006 963.186C881.368 963.306 880.76 963.552 880.218 963.908C879.675 964.264 879.208 964.724 878.844 965.262C878.48 965.8 878.226 966.404 878.097 967.04C877.967 967.676 877.965 968.332 878.091 968.969C878.216 969.606 878.466 970.212 878.827 970.752C879.188 971.292 879.652 971.755 880.192 972.114C886.59 976.438 891.43 982.7 894.003 989.98C896.575 997.26 896.744 1005.17 894.483 1012.56C892.223 1019.94 887.653 1026.4 881.445 1030.99C875.238 1035.58 867.721 1038.06 860 1038.06C852.28 1038.06 844.763 1035.58 838.555 1030.99C832.348 1026.4 827.778 1019.94 825.517 1012.56C823.257 1005.17 823.425 997.26 825.998 989.98C828.57 982.7 833.405 976.438 839.802 972.114Z" fill="#FF7E78"/>
</g>
</g>
<g id="Left Toggle" filter="url(#filter12_d_0_1)">
<rect id="Left_2" x="745" y="1135" width="94" height="94" rx="16" fill="#313131" stroke="black" stroke-width="10"/>
<path id="Play button" d="M800.038 1198.87C800.038 1199.27 799.879 1199.66 799.596 1199.95C799.314 1200.24 798.93 1200.4 798.53 1200.4H786.469C786.069 1200.4 785.685 1200.24 785.403 1199.95C785.12 1199.66 784.961 1199.27 784.961 1198.87C784.961 1198.46 785.12 1198.07 785.403 1197.78C785.685 1197.49 786.069 1197.33 786.469 1197.33H798.53C798.93 1197.33 799.314 1197.49 799.596 1197.78C799.879 1198.07 800.038 1198.46 800.038 1198.87ZM812.099 1168.2V1189.67C812.099 1190.89 811.623 1192.06 810.775 1192.92C809.926 1193.78 808.776 1194.27 807.576 1194.27H777.422C776.223 1194.27 775.072 1193.78 774.224 1192.92C773.376 1192.06 772.899 1190.89 772.899 1189.67V1168.2C772.899 1166.98 773.376 1165.81 774.224 1164.95C775.072 1164.08 776.223 1163.6 777.422 1163.6H807.576C808.776 1163.6 809.926 1164.08 810.775 1164.95C811.623 1165.81 812.099 1166.98 812.099 1168.2ZM799.284 1178.93C799.284 1178.69 799.226 1178.44 799.114 1178.23C799.002 1178.01 798.84 1177.82 798.641 1177.68L791.103 1172.31C790.877 1172.15 790.612 1172.06 790.337 1172.04C790.062 1172.02 789.787 1172.08 789.542 1172.21C789.297 1172.34 789.092 1172.53 788.949 1172.77C788.806 1173.01 788.73 1173.29 788.73 1173.57V1184.3C788.73 1184.58 788.806 1184.86 788.949 1185.1C789.092 1185.34 789.297 1185.53 789.542 1185.66C789.787 1185.79 790.062 1185.85 790.337 1185.83C790.612 1185.81 790.877 1185.72 791.103 1185.56L798.641 1180.19C798.84 1180.05 799.002 1179.86 799.114 1179.64C799.226 1179.42 799.284 1179.18 799.284 1178.93Z" fill="white"/>
</g>
<g id="Right Toggle" filter="url(#filter13_d_0_1)">
<rect id="Right_2" x="881" y="1135" width="94" height="94" rx="16" fill="#313131" stroke="black" stroke-width="10"/>
<path id="Github Button" d="M949.9 1175.57V1177.41C949.896 1180.52 948.768 1183.52 946.723 1185.86C944.679 1188.2 941.856 1189.72 938.777 1190.14C940.034 1191.75 940.716 1193.74 940.715 1195.78V1204.96C940.715 1205.45 940.521 1205.92 940.177 1206.26C939.832 1206.61 939.365 1206.8 938.878 1206.8H924.181C923.694 1206.8 923.227 1206.61 922.882 1206.26C922.538 1205.92 922.344 1205.45 922.344 1204.96V1201.29H916.833C914.397 1201.29 912.061 1200.32 910.338 1198.6C908.616 1196.88 907.648 1194.54 907.648 1192.1C907.648 1190.64 907.067 1189.24 906.034 1188.21C905 1187.17 903.598 1186.59 902.137 1186.59C901.65 1186.59 901.182 1186.4 900.838 1186.05C900.493 1185.71 900.3 1185.24 900.3 1184.76C900.3 1184.27 900.493 1183.8 900.838 1183.46C901.182 1183.11 901.65 1182.92 902.137 1182.92C903.343 1182.92 904.537 1183.16 905.652 1183.62C906.766 1184.08 907.779 1184.76 908.632 1185.61C909.485 1186.46 910.161 1187.47 910.623 1188.59C911.084 1189.7 911.322 1190.9 911.322 1192.1C911.322 1193.57 911.903 1194.97 912.936 1196C913.97 1197.03 915.371 1197.61 916.833 1197.61H922.344V1195.78C922.343 1193.74 923.025 1191.75 924.282 1190.14C921.203 1189.72 918.38 1188.2 916.336 1185.86C914.291 1183.52 913.163 1180.52 913.159 1177.41V1175.57C913.182 1173.29 913.79 1171.05 914.925 1169.07C914.363 1167.26 914.183 1165.35 914.396 1163.46C914.609 1161.58 915.209 1159.76 916.16 1158.12C916.322 1157.84 916.554 1157.61 916.833 1157.45C917.112 1157.28 917.429 1157.2 917.752 1157.2C919.891 1157.2 922.002 1157.69 923.916 1158.65C925.83 1159.61 927.494 1161 928.774 1162.71H934.285C935.565 1161 937.229 1159.61 939.143 1158.65C941.056 1157.69 943.167 1157.2 945.307 1157.2C945.63 1157.2 945.947 1157.28 946.226 1157.45C946.505 1157.61 946.737 1157.84 946.899 1158.12C947.85 1159.76 948.45 1161.58 948.663 1163.46C948.875 1165.35 948.694 1167.26 948.132 1169.07C949.269 1171.05 949.878 1173.29 949.9 1175.57Z" fill="white"/>
</g>
</g>
</g>
</g>
<defs>
<filter id="filter0_d_0_1" x="15" y="37" width="973" height="736" filterUnits="userSpaceOnUse" color-interpolation-filters="sRGB">
<feFlood flood-opacity="0" result="BackgroundImageFix"/>
<feColorMatrix in="SourceAlpha" type="matrix" values="0 0 0 0 0 0 0 0 0 0 0 0 0 0 0 0 0 0 127 0" result="hardAlpha"/>
<feOffset dx="-11" dy="13"/>
<feGaussianBlur stdDeviation="6"/>
<feComposite in2="hardAlpha" operator="out"/>
<feColorMatrix type="matrix" values="0 0 0 0 0 0 0 0 0 0 0 0 0 0 0 0 0 0 0.25 0"/>
<feBlend mode="normal" in2="BackgroundImageFix" result="effect1_dropShadow_0_1"/>
<feBlend mode="normal" in="SourceGraphic" in2="effect1_dropShadow_0_1" result="shape"/>
</filter>
<filter id="filter1_d_0_1" x="35" y="1089" width="123" height="140" filterUnits="userSpaceOnUse" color-interpolation-filters="sRGB">
<feFlood flood-opacity="0" result="BackgroundImageFix"/>
<feColorMatrix in="SourceAlpha" type="matrix" values="0 0 0 0 0 0 0 0 0 0 0 0 0 0 0 0 0 0 127 0" result="hardAlpha"/>
<feOffset dx="-5" dy="4"/>
<feGaussianBlur stdDeviation="2.5"/>
<feComposite in2="hardAlpha" operator="out"/>
<feColorMatrix type="matrix" values="0 0 0 0 0 0 0 0 0 0 0 0 0 0 0 0 0 0 0.25 0"/>
<feBlend mode="normal" in2="BackgroundImageFix" result="effect1_dropShadow_0_1"/>
<feBlend mode="normal" in="SourceGraphic" in2="effect1_dropShadow_0_1" result="shape"/>
</filter>
<filter id="filter2_d_0_1" x="35" y="918" width="123" height="140" filterUnits="userSpaceOnUse" color-interpolation-filters="sRGB">
<feFlood flood-opacity="0" result="BackgroundImageFix"/>
<feColorMatrix in="SourceAlpha" type="matrix" values="0 0 0 0 0 0 0 0 0 0 0 0 0 0 0 0 0 0 127 0" result="hardAlpha"/>
<feOffset dx="-5" dy="4"/>
<feGaussianBlur stdDeviation="2.5"/>
<feComposite in2="hardAlpha" operator="out"/>
<feColorMatrix type="matrix" values="0 0 0 0 0 0 0 0 0 0 0 0 0 0 0 0 0 0 0.25 0"/>
<feBlend mode="normal" in2="BackgroundImageFix" result="effect1_dropShadow_0_1"/>
<feBlend mode="normal" in="SourceGraphic" in2="effect1_dropShadow_0_1" result="shape"/>
</filter>
<filter id="filter3_d_0_1" x="169" y="1089" width="123" height="140" filterUnits="userSpaceOnUse" color-interpolation-filters="sRGB">
<feFlood flood-opacity="0" result="BackgroundImageFix"/>
<feColorMatrix in="SourceAlpha" type="matrix" values="0 0 0 0 0 0 0 0 0 0 0 0 0 0 0 0 0 0 127 0" result="hardAlpha"/>
<feOffset dx="-5" dy="4"/>
<feGaussianBlur stdDeviation="2.5"/>
<feComposite in2="hardAlpha" operator="out"/>
<feColorMatrix type="matrix" values="0 0 0 0 0 0 0 0 0 0 0 0 0 0 0 0 0 0 0.25 0"/>
<feBlend mode="normal" in2="BackgroundImageFix" result="effect1_dropShadow_0_1"/>
<feBlend mode="normal" in="SourceGraphic" in2="effect1_dropShadow_0_1" result="shape"/>
</filter>
<filter id="filter4_d_0_1" x="169" y="918" width="123" height="140" filterUnits="userSpaceOnUse" color-interpolation-filters="sRGB">
<feFlood flood-opacity="0" result="BackgroundImageFix"/>
<feColorMatrix in="SourceAlpha" type="matrix" values="0 0 0 0 0 0 0 0 0 0 0 0 0 0 0 0 0 0 127 0" result="hardAlpha"/>
<feOffset dx="-5" dy="4"/>
<feGaussianBlur stdDeviation="2.5"/>
<feComposite in2="hardAlpha" operator="out"/>
<feColorMatrix type="matrix" values="0 0 0 0 0 0 0 0 0 0 0 0 0 0 0 0 0 0 0.25 0"/>
<feBlend mode="normal" in2="BackgroundImageFix" result="effect1_dropShadow_0_1"/>
<feBlend mode="normal" in="SourceGraphic" in2="effect1_dropShadow_0_1" result="shape"/>
</filter>
<filter id="filter5_d_0_1" x="303" y="918" width="123" height="140" filterUnits="userSpaceOnUse" color-interpolation-filters="sRGB">
<feFlood flood-opacity="0" result="BackgroundImageFix"/>
<feColorMatrix in="SourceAlpha" type="matrix" values="0 0 0 0 0 0 0 0 0 0 0 0 0 0 0 0 0 0 127 0" result="hardAlpha"/>
<feOffset dx="-5" dy="4"/>
<feGaussianBlur stdDeviation="2.5"/>
<feComposite in2="hardAlpha" operator="out"/>
<feColorMatrix type="matrix" values="0 0 0 0 0 0 0 0 0 0 0 0 0 0 0 0 0 0 0.25 0"/>
<feBlend mode="normal" in2="BackgroundImageFix" result="effect1_dropShadow_0_1"/>
<feBlend mode="normal" in="SourceGraphic" in2="effect1_dropShadow_0_1" result="shape"/>
</filter>
<filter id="filter6_d_0_1" x="437" y="918" width="123" height="140" filterUnits="userSpaceOnUse" color-interpolation-filters="sRGB">
<feFlood flood-opacity="0" result="BackgroundImageFix"/>
<feColorMatrix in="SourceAlpha" type="matrix" values="0 0 0 0 0 0 0 0 0 0 0 0 0 0 0 0 0 0 127 0" result="hardAlpha"/>
<feOffset dx="-5" dy="4"/>
<feGaussianBlur stdDeviation="2.5"/>
<feComposite in2="hardAlpha" operator="out"/>
<feColorMatrix type="matrix" values="0 0 0 0 0 0 0 0 0 0 0 0 0 0 0 0 0 0 0.25 0"/>
<feBlend mode="normal" in2="BackgroundImageFix" result="effect1_dropShadow_0_1"/>
<feBlend mode="normal" in="SourceGraphic" in2="effect1_dropShadow_0_1" result="shape"/>
</filter>
<filter id="filter7_d_0_1" x="571" y="918" width="123" height="140" filterUnits="userSpaceOnUse" color-interpolation-filters="sRGB">
<feFlood flood-opacity="0" result="BackgroundImageFix"/>
<feColorMatrix in="SourceAlpha" type="matrix" values="0 0 0 0 0 0 0 0 0 0 0 0 0 0 0 0 0 0 127 0" result="hardAlpha"/>
<feOffset dx="-5" dy="4"/>
<feGaussianBlur stdDeviation="2.5"/>
<feComposite in2="hardAlpha" operator="out"/>
<feColorMatrix type="matrix" values="0 0 0 0 0 0 0 0 0 0 0 0 0 0 0 0 0 0 0.25 0"/>
<feBlend mode="normal" in2="BackgroundImageFix" result="effect1_dropShadow_0_1"/>
<feBlend mode="normal" in="SourceGraphic" in2="effect1_dropShadow_0_1" result="shape"/>
</filter>
<filter id="filter8_d_0_1" x="366.662" y="1129.88" width="258.745" height="52.64" filterUnits="userSpaceOnUse" color-interpolation-filters="sRGB">
<feFlood flood-opacity="0" result="BackgroundImageFix"/>
<feColorMatrix in="SourceAlpha" type="matrix" values="0 0 0 0 0 0 0 0 0 0 0 0 0 0 0 0 0 0 127 0" result="hardAlpha"/>
<feOffset/>
<feGaussianBlur stdDeviation="3"/>
<feComposite in2="hardAlpha" operator="out"/>
<feColorMatrix type="matrix" values="0 0 0 0 0.517647 0 0 0 0 1 0 0 0 0 0.494118 0 0 0 0.5 0"/>
<feBlend mode="normal" in2="BackgroundImageFix" result="effect1_dropShadow_0_1"/>
<feBlend mode="normal" in="SourceGraphic" in2="effect1_dropShadow_0_1" result="shape"/>
</filter>
<filter id="filter9_d_0_1" x="753" y="904" width="205" height="204" filterUnits="userSpaceOnUse" color-interpolation-filters="sRGB">
<feFlood flood-opacity="0" result="BackgroundImageFix"/>
<feColorMatrix in="SourceAlpha" type="matrix" values="0 0 0 0 0 0 0 0 0 0 0 0 0 0 0 0 0 0 127 0" result="hardAlpha"/>
<feOffset dx="-5" dy="4"/>
<feGaussianBlur stdDeviation="2"/>
<feComposite in2="hardAlpha" operator="out"/>
<feColorMatrix type="matrix" values="0 0 0 0 0 0 0 0 0 0 0 0 0 0 0 0 0 0 0.25 0"/>
<feBlend mode="normal" in2="BackgroundImageFix" result="effect1_dropShadow_0_1"/>
<feBlend mode="normal" in="SourceGraphic" in2="effect1_dropShadow_0_1" result="shape"/>
</filter>
<filter id="filter10_d_0_1" x="758" y="904" width="204" height="204" filterUnits="userSpaceOnUse" color-interpolation-filters="sRGB">
<feFlood flood-opacity="0" result="BackgroundImageFix"/>
<feColorMatrix in="SourceAlpha" type="matrix" values="0 0 0 0 0 0 0 0 0 0 0 0 0 0 0 0 0 0 127 0" result="hardAlpha"/>
<feOffset dy="4"/>
<feGaussianBlur stdDeviation="2"/>
<feComposite in2="hardAlpha" operator="out"/>
<feColorMatrix type="matrix" values="0 0 0 0 0 0 0 0 0 0 0 0 0 0 0 0 0 0 0.25 0"/>
<feBlend mode="normal" in2="BackgroundImageFix" result="effect1_dropShadow_0_1"/>
<feBlend mode="normal" in="SourceGraphic" in2="effect1_dropShadow_0_1" result="shape"/>
</filter>
<filter id="filter11_d_0_1" x="802.102" y="944.101" width="115.798" height="115.797" filterUnits="userSpaceOnUse" color-interpolation-filters="sRGB">
<feFlood flood-opacity="0" result="BackgroundImageFix"/>
<feColorMatrix in="SourceAlpha" type="matrix" values="0 0 0 0 0 0 0 0 0 0 0 0 0 0 0 0 0 0 127 0" result="hardAlpha"/>
<feOffset/>
<feGaussianBlur stdDeviation="6"/>
<feComposite in2="hardAlpha" operator="out"/>
<feColorMatrix type="matrix" values="0 0 0 0 1 0 0 0 0 0.494118 0 0 0 0 0.470588 0 0 0 0.6 0"/>
<feBlend mode="normal" in2="BackgroundImageFix" result="effect1_dropShadow_0_1"/>
<feBlend mode="normal" in="SourceGraphic" in2="effect1_dropShadow_0_1" result="shape"/>
</filter>
<filter id="filter12_d_0_1" x="731" y="1130" width="113" height="112" filterUnits="userSpaceOnUse" color-interpolation-filters="sRGB">
<feFlood flood-opacity="0" result="BackgroundImageFix"/>
<feColorMatrix in="SourceAlpha" type="matrix" values="0 0 0 0 0 0 0 0 0 0 0 0 0 0 0 0 0 0 127 0" result="hardAlpha"/>
<feOffset dx="-5" dy="4"/>
<feGaussianBlur stdDeviation="2"/>
<feComposite in2="hardAlpha" operator="out"/>
<feColorMatrix type="matrix" values="0 0 0 0 0 0 0 0 0 0 0 0 0 0 0 0 0 0 0.25 0"/>
<feBlend mode="normal" in2="BackgroundImageFix" result="effect1_dropShadow_0_1"/>
<feBlend mode="normal" in="SourceGraphic" in2="effect1_dropShadow_0_1" result="shape"/>
</filter>
<filter id="filter13_d_0_1" x="867" y="1130" width="113" height="112" filterUnits="userSpaceOnUse" color-interpolation-filters="sRGB">
<feFlood flood-opacity="0" result="BackgroundImageFix"/>
<feColorMatrix in="SourceAlpha" type="matrix" values="0 0 0 0 0 0 0 0 0 0 0 0 0 0 0 0 0 0 127 0" result="hardAlpha"/>
<feOffset dx="-5" dy="4"/>
<feGaussianBlur stdDeviation="2"/>
<feComposite in2="hardAlpha" operator="out"/>
<feColorMatrix type="matrix" values="0 0 0 0 0 0 0 0 0 0 0 0 0 0 0 0 0 0 0.25 0"/>
<feBlend mode="normal" in2="BackgroundImageFix" result="effect1_dropShadow_0_1"/>
<feBlend mode="normal" in="SourceGraphic" in2="effect1_dropShadow_0_1" result="shape"/>
</filter>
</defs>
</svg>
